:SAMPLES-PER-SECOND 30
:FULLY-SPECIFIED
:DEGREES
264
root  -3.20644 37.7501 2.43973 -145 -82.0025 145.598
RightUpLeg  -35.4897 2.5922 4.31421
RightLeg  43.0084 -6.03442 -6.31334
RightFoot  11.0981 -1.55816 7.73671
RightToes  7.56698e-010 0 -3.6325e-017
Spine  9.70171 -5.91563 -11.8841
Spine1  0.916036 -11.2147 23.2121
HEad  -15.3732 36.7341 -27.8188
LeftShoulder1  2.66085 -7.96841 -16.4894
LeftArm  -39.6285 -9.63779 -24.6961
LeftForeArm  117.528 -75.7824 -132.886
LeftHand  -0.583015 2.99722 27.985
RightShoulder  2.31449 4.66405 22.1096
RightArm  -24.3244 25.0759 54.143
RightForeArm  27.1335 68.9896 28.0902
RightHand  -1.64213 6.53563 -16.2173
LeftUpLeg  19.116 3.4819 -7.62752
LeftLeg  18.9988 -3.68261 0.0373262
LeftFoot  -8.73385 0.225004 -6.85598
LeftToes  -3.13779e-010 -2.47553e-011 -5.36621e-011
265
root  -3.27709 36.4306 2.40133 -135.821 -81.4216 135.699
RightUpLeg  -35.4723 2.62257 4.62673
RightLeg  47.3732 -7.82837 -9.32611
RightFoot  -0.788517 0.339056 -3.1293
RightToes  7.56698e-010 0 -3.6325e-017
Spine  9.09994 -4.9093 -11.8682
Spine1  2.15932 -10.3646 21.794
HEad  -15.9977 33.3503 -27.0585
LeftShoulder1  2.44793 -7.89481 -14.612
LeftArm  -45.402 -14.9915 -20.3672
LeftForeArm  129.754 -72.715 -142.836
LeftHand  -0.392017 3.8614 29.4299
RightShoulder  2.33082 4.62294 22.4744
RightArm  -27.4774 26.3976 51.3243
RightForeArm  41.031 75.7897 44.9386
RightHand  -1.47325 5.05798 -16.5494
LeftUpLeg  20.3064 1.24749 -8.54811
LeftLeg  21.7824 -10.7175 -3.5442
LeftFoot  -17.3091 -0.068023 -3.79164
LeftToes  -3.13779e-010 -2.47553e-011 -5.36621e-011
266
root  -3.39182 35.685 2.36404 -134.912 -80.755 133.791
RightUpLeg  -35.0616 2.75808 4.95792
RightLeg  50.3409 -8.85648 -11.575
RightFoot  -7.49822 0.224759 -7.27137
RightToes  7.56698e-010 0 -3.6325e-017
Spine  8.16021 -3.37783 -9.78192
Spine1  4.75317 -8.52426 17.9784
HEad  -17.518 28.975 -28.1307
LeftShoulder1  2.4522 -8.0102 -14.4116
LeftArm  -47.6503 -20.5513 -19.9026
LeftForeArm  136.822 -72.325 -144.768
LeftHand  -0.401667 3.79063 28.8738
RightShoulder  2.33587 4.63329 22.5018
RightArm  -29.7264 29.0165 47.0898
RightForeArm  38.9822 75.1722 43.9103
RightHand  -1.41259 4.57327 -16.6366
LeftUpLeg  21.2695 -0.759609 -11.0107
LeftLeg  23.9555 -8.47453 -3.34266
LeftFoot  -23.4144 0.0726586 -0.351244
LeftToes  -3.13779e-010 -2.47553e-011 -5.36621e-011
267
root  -3.35887 36.0271 2.09281 -123.778 -82.5431 122.2
RightUpLeg  -33.8638 0.721285 5.84852
RightLeg  48.4756 -9.68147 -11.7761
RightFoot  -5.2602 0.421414 -8.24598
RightToes  7.56698e-010 0 -3.6325e-017
Spine  7.97843 -2.966 -8.53049
Spine1  6.988 -8.08112 16.487
HEad  -19.3237 25.4041 -29.4934
LeftShoulder1  2.53775 -8.14287 -14.9502
LeftArm  -44.445 -22.8726 -25.613
LeftForeArm  138.548 -74.0726 -141.494
LeftHand  -0.478424 3.23064 25.3479
RightShoulder  2.36845 4.88801 21.9872
RightArm  -29.972 31.4507 44.5858
RightForeArm  19.8374 65.4346 24.4449
RightHand  -1.59885 5.60291 -17.045
LeftUpLeg  20.6887 -3.15067 -11.2306
LeftLeg  25.321 -3.27614 -1.20772
LeftFoot  -20.738 0.00613545 -1.97656
LeftToes  -3.13779e-010 -2.47553e-011 -5.36621e-011
268
root  -2.92719 37.4191 1.41618 -79.3811 -84.8308 77.579
RightUpLeg  -30.2377 -4.44151 6.85633
RightLeg  39.2854 -9.80654 -8.87719
RightFoot  3.46839 0.894764 -6.94605
RightToes  7.56698e-010 0 -3.6325e-017
Spine  9.96029 -3.32324 -8.84578
Spine1  7.39208 -8.59355 16.7611
HEad  -19.8122 21.4707 -26.4498
LeftShoulder1  2.57972 -8.63081 -14.3821
LeftArm  -37.6087 -23.9055 -35.9489
LeftForeArm  99.0204 -79.1879 -96.4355
LeftHand  -0.624269 2.01047 21.4805
RightShoulder  2.37942 5.1957 21.049
RightArm  -28.2675 32.7799 44.4499
RightForeArm  7.65225 46.9451 11.2831
RightHand  -2.0181 7.31452 -18.6075
LeftUpLeg  15.8751 -5.77641 -7.64636
LeftLeg  29.9449 -2.41087 -1.19654
LeftFoot  -7.77231 0.211501 -5.49931
LeftToes  -3.13779e-010 -2.47553e-011 -5.36621e-011
269
root  -2.24663 39.0987 0.599243 -31.4451 -83.3482 29.4755
RightUpLeg  -24.2536 -9.46828 7.27805
RightLeg  25.1275 -5.5796 -3.20339
RightFoot  13.0851 -0.223305 1.16476
RightToes  7.56698e-010 0 -3.6325e-017
Spine  13.439 -2.90125 -6.87972
Spine1  6.3766 -7.07495 13.4436
HEad  -18.0011 15.8006 -17.9562
LeftShoulder1  2.65776 -9.6861 -13.1448
LeftArm  -31.2081 -27.4702 -44.8745
LeftForeArm  29.0041 -63.395 -21.2258
LeftHand  -1.12098 -0.761839 21.0062
RightShoulder  2.33899 5.43562 19.7742
RightArm  -25.4784 33.2991 44.9511
RightForeArm  2.94522 26.8869 6.20358
RightHand  -2.26351 7.8859 -19.9393
LeftUpLeg  6.31906 -6.66691 -3.63161
LeftLeg  38.7729 -0.888762 -0.218248
LeftFoot  10.2546 0.82296 -4.94757
LeftToes  -3.13779e-010 -2.47553e-011 -5.36621e-011
270
root  -1.73328 40.2792 -0.0311508 -21.8215 -83.4138 20.0557
RightUpLeg  -18.3809 -9.36753 6.48099
RightLeg  14.5433 1.70335 0.803271
RightFoot  17.4808 -3.66387 14.984
RightToes  7.56698e-010 0 -3.6325e-017
Spine  16.0931 -1.49223 -1.21078
Spine1  5.40834 -2.8276 5.012
HEad  -15.2422 9.12017 -8.45008
LeftShoulder1  2.83615 -10.5561 -13.1657
LeftArm  -27.9189 -33.8986 -49.1911
LeftForeArm  14.6687 -29.5146 -5.74895
LeftHand  -1.49157 -2.44469 22.1339
RightShoulder  2.26833 5.83903 17.7422
RightArm  -25.3818 33.6236 45.2603
RightForeArm  4.90276 11.9966 7.042
RightHand  -2.31414 7.95128 -20.2617
LeftUpLeg  -4.65621 -4.43907 -1.57328
LeftLeg  48.1669 4.48224 5.83527
LeftFoot  22.0516 0.415879 -1.75516
LeftToes  -3.13779e-010 -2.47553e-011 -5.36621e-011
271
root  -1.58034 41.099 -0.550515 -20.7812 -85.4789 19.4865
RightUpLeg  -13.8562 -3.27245 4.37976
RightLeg  12.8176 4.88206 2.09313
RightFoot  14.1706 -5.07914 22.5437
RightToes  7.56698e-010 0 -3.6325e-017
Spine  17.3405 0.0778765 4.23043
Spine1  5.22831 1.62577 -3.77598
HEad  -13.5091 3.65833 -2.10772
LeftShoulder1  2.95672 -10.4567 -14.2815
LeftArm  -31.8157 -38.2387 -50.6864
LeftForeArm  13.1505 -1.87735 -4.63807
LeftHand  -1.12478 -1.33923 19.3331
RightShoulder  2.15912 6.3722 15.0828
RightArm  -25.403 34.0149 45.9356
RightForeArm  7.12354 7.15418 8.33092
RightHand  -2.56844 8.87873 -20.9954
LeftUpLeg  -14.1362 -0.817825 -1.23121
LeftLeg  53.1958 8.11182 11.7752
LeftFoot  22.0605 -0.0771223 -0.161592
LeftToes  -3.13779e-010 -2.47553e-011 -5.36621e-011
272
root  -1.69769 41.7476 -1.1245 -21.6878 -85.6384 20.4992
RightUpLeg  -8.90824 -0.0912618 2.85681
RightLeg  16.8186 4.85119 1.31791
RightFoot  7.0991 -2.93194 17.9123
RightToes  7.56698e-010 0 -3.6325e-017
Spine  17.4981 0.863981 6.04014
Spine1  6.34966 3.79102 -8.32106
HEad  -13.6959 0.44337 0.803521
LeftShoulder1  2.93423 -9.95942 -14.9546
LeftArm  -28.9939 -35.8649 -51.6554
LeftForeArm  9.32936 7.46442 -3.74499
LeftHand  -0.786826 -0.773863 15.0325
RightShoulder  2.01374 6.51473 13.135
RightArm  -22.7237 34.2179 46.7044
RightForeArm  3.20418 14.0762 7.46427
RightHand  -2.87192 9.97171 -21.8008
LeftUpLeg  -21.0104 0.557034 -2.6069
LeftLeg  50.2304 6.69846 9.1763
LeftFoot  16.8686 0.228765 -1.45486
LeftToes  -3.13779e-010 -2.47553e-011 -5.36621e-011
273
root  -2.04546 41.8548 -1.70719 -14.8157 -82.6853 13.2138
RightUpLeg  -1.91764 1.1901 1.74263
RightLeg  20.9243 -2.15523 -1.13479
RightFoot  0.481357 -0.926851 9.10238
RightToes  7.56698e-010 0 -3.6325e-017
Spine  16.317 0.616695 5.65543
Spine1  8.51057 3.54892 -8.33198
HEad  -14.9291 -1.61067 2.31167
LeftShoulder1  3.04069 -9.90209 -15.9193
LeftArm  -24.5851 -27.2835 -51.4445
LeftForeArm  11.2313 6.97609 -6.48573
LeftHand  -0.786243 -1.30493 13.7655
RightShoulder  1.92343 6.18085 12.8822
RightArm  -22.8622 32.9885 46.4437
RightForeArm  -1.43926 30.7048 6.35859
RightHand  -2.84333 10.4484 -20.9576
LeftUpLeg  -25.2929 -0.44374 -4.69471
LeftLeg  42.0663 1.68416 2.05671
LeftFoot  14.0545 1.82767 -8.31981
LeftToes  -3.13779e-010 -2.47553e-011 -5.36621e-011
274
root  -2.72627 41.3195 -2.22388 -4.62747 -78.5604 2.66324
RightUpLeg  6.21474 -1.24285 2.63075
RightLeg  22.5435 -9.76963 -4.70836
RightFoot  -3.296 -0.284322 3.99791
RightToes  7.56698e-010 0 -3.6325e-017
Spine  13.6304 0.2227 6.50047
Spine1  10.2213 2.95466 -7.56015
HEad  -14.9604 -4.40433 4.39474
LeftShoulder1  3.39342 -10.3093 -17.9666
LeftArm  -20.6757 -17.1846 -49.4943
LeftForeArm  13.9475 7.37589 -8.90404
LeftHand  -0.801224 -1.00874 14.6619
RightShoulder  1.92876 5.70106 14.0935
RightArm  -33.0181 29.379 44.0591
RightForeArm  7.00786 52.5656 14.8398
RightHand  -2.40355 9.61858 -18.7441
LeftUpLeg  -27.8831 -0.238026 -6.81716
LeftLeg  35.0069 -1.58937 -0.934982
LeftFoot  17.2283 3.88252 -15.5942
LeftToes  -3.13779e-010 -2.47553e-011 -5.36621e-011
